<svg xmlns="http://www.w3.org/2000/svg" version="1.1" xmlns:xlink="http://www.w3.org/1999/xlink" xmlns:svgjs="http://svgjs.dev/svgjs" width="1000" height="207" viewBox="0 0 1000 207"><g transform="matrix(1,0,0,1,-0.6060601629861821,-0.1624269771471205)"><svg viewBox="0 0 396 82" data-background-color="#ffffff" preserveAspectRatio="xMidYMid meet" height="207" width="1000" xmlns="http://www.w3.org/2000/svg" xmlns:xlink="http://www.w3.org/1999/xlink"><g id="tight-bounds" transform="matrix(1,0,0,1,0.24000017545745322,0.06434305374909854)"><svg viewBox="0 0 395.52 81.87131389250182" height="81.87131389250182" width="395.52"><g><svg viewBox="0 0 471.15995240011273 97.52853043215474" height="81.87131389250182" width="395.52"><g transform="matrix(1,0,0,1,75.63995240011273,30.13773152009671)"><svg viewBox="0 0 395.52 37.253067391961316" height="37.253067391961316" width="395.52"><g id="textblocktransform"><svg viewBox="0 0 395.52 37.253067391961316" height="37.253067391961316" width="395.52" id="textblock"><g><svg viewBox="0 0 395.52 37.253067391961316" height="37.253067391961316" width="395.52"><g transform="matrix(1,0,0,1,0,0)"><svg width="395.52" viewBox="3.049999952316284 -41.54999923706055 496.2900085449219 46.75" height="37.253067391961316" data-palette-color="#1ebbd7"><path d="M7.3 3.8L7.3 3.8Q4.9 3.1 3.98 2.4 3.05 1.7 3.05 0.65L3.05 0.65Q3.05-0.15 3.5-1.6 3.95-3.05 4.83-5.03 5.7-7 6.93-9.4 8.15-11.8 9.7-14.55L9.7-14.55Q8.4-14.6 7.38-14.63 6.35-14.65 5.7-14.65L5.7-14.65Q6-15.4 7.4-15.95 8.8-16.5 11.1-16.9L11.1-16.9Q13.05-20.15 15.28-23.1 17.5-26.05 19.75-28.53 22-31 24.25-32.88 26.5-34.75 28.55-35.85L28.55-35.85Q28.6-36.2 28.63-36.45 28.65-36.7 28.65-36.8L28.65-36.8Q29.35-36.8 30.53-36.45 31.7-36.1 32.83-35.6 33.95-35.1 34.83-34.58 35.7-34.05 35.8-33.7L35.8-33.7Q34.15-30.8 32.55-25.03 30.95-19.25 29.9-11.2L29.9-11.2Q29.65-9.2 29.48-6.65 29.3-4.1 29.3-0.95L29.3-0.95Q29.3 0.15 29.3 1.3 29.3 2.45 29.4 3.7L29.4 3.7Q29.3 3.75 29.2 3.75 29.1 3.75 28.8 3.75L28.8 3.75Q28.1 3.75 27.18 3.53 26.25 3.3 25.38 2.98 24.5 2.65 23.88 2.25 23.25 1.85 23.1 1.55L23.1 1.55Q23.05 0.9 23.05 0.28 23.05-0.35 23.05-1.05L23.05-1.05Q23.05-4.15 23.28-7.35 23.5-10.55 24.05-13.95L24.05-13.95Q23.35-14 22.2-14.08 21.05-14.15 19.63-14.2 18.2-14.25 16.57-14.33 14.95-14.4 13.4-14.45L13.4-14.45Q12.2-12.2 11.15-9.98 10.1-7.75 9.35-5.5L9.35-5.5Q8.5-3.1 7.98-0.7 7.45 1.7 7.3 3.8ZM26.6-26.25L26.6-26.25Q26.8-26.95 27.08-28.18 27.35-29.4 27.6-30.75L27.6-30.75Q26.35-30.3 24.83-29.1 23.3-27.9 21.68-26.13 20.05-24.35 18.38-22.13 16.7-19.9 15.15-17.4L15.15-17.4Q19.35-17.75 24.7-17.85L24.7-17.85Q25.1-19.95 25.58-22.03 26.05-24.1 26.6-26.25ZM35.55-3.2L35.55-3.2Q35.55-5.4 36.6-9.38 37.65-13.35 39.55-18.65L39.55-18.65Q42.65-27.1 45.37-32.73 48.1-38.35 50.7-41.5L50.7-41.5Q51.3-41.4 52.17-41 53.05-40.6 53.9-40.13 54.75-39.65 55.42-39.15 56.1-38.65 56.3-38.35L56.3-38.35Q52.4-33.75 49.45-28.45 46.5-23.15 44.05-16.3L44.05-16.3Q41.95-10.4 40.85-5.68 39.75-0.95 39.75 2.2L39.75 2.2Q39.75 3.05 39.75 3.25 39.75 3.45 39.8 3.65L39.8 3.65Q39.1 3.55 38.6 3.3 38.1 3.05 37.95 2.7L37.95 2.7Q37.85 2.45 37.4 1.98 36.95 1.5 36.6 1.25L36.6 1.25Q36.15 0.95 35.85-0.33 35.55-1.6 35.55-3.2ZM47.34-3.2L47.34-3.2Q47.34-5.4 48.4-9.38 49.45-13.35 51.34-18.65L51.34-18.65Q54.45-27.1 57.17-32.73 59.9-38.35 62.5-41.5L62.5-41.5Q63.09-41.4 63.97-41 64.84-40.6 65.7-40.13 66.55-39.65 67.22-39.15 67.9-38.65 68.09-38.35L68.09-38.35Q64.2-33.75 61.25-28.45 58.3-23.15 55.84-16.3L55.84-16.3Q53.75-10.4 52.65-5.68 51.55-0.95 51.55 2.2L51.55 2.2Q51.55 3.05 51.55 3.25 51.55 3.45 51.59 3.65L51.59 3.65Q50.9 3.55 50.4 3.3 49.9 3.05 49.75 2.7L49.75 2.7Q49.65 2.45 49.2 1.98 48.75 1.5 48.4 1.25L48.4 1.25Q47.95 0.95 47.65-0.33 47.34-1.6 47.34-3.2ZM81.19-30.3L81.19-30.3Q79.19-30.3 78.12-31.43 77.04-32.55 77.04-34.15L77.04-34.15Q77.04-34.55 77.17-35.1 77.29-35.65 77.49-36.05L77.49-36.05Q78.14-35.75 79.42-35.63 80.69-35.5 82.39-35.5L82.39-35.5Q84.94-35.5 88.17-35.73 91.39-35.95 94.34-36.2 97.29-36.45 99.54-36.68 101.79-36.9 102.44-36.9L102.44-36.9Q104.29-36.9 105.12-35.52 105.94-34.15 106.34-31.85L106.34-31.85Q105.04-31.95 103.77-32.02 102.49-32.1 101.59-32.1L101.59-32.1Q99.99-32.1 98.37-32 96.74-31.9 95.09-31.7L95.09-31.7Q94.39-30.25 93.54-28.28 92.69-26.3 91.87-24.15 91.04-22 90.29-19.88 89.54-17.75 88.99-16.05L88.99-16.05Q87.89-12.75 87.07-9.95 86.24-7.15 85.62-4.73 84.99-2.3 84.54-0.1 84.09 2.1 83.74 4.2L83.74 4.2Q80.39 3.7 78.14 0L78.14 0Q78.54-1.55 79.12-3.38 79.69-5.2 80.47-7.53 81.24-9.85 82.29-12.8 83.34-15.75 84.69-19.5L84.69-19.5Q85.19-20.9 85.74-22.43 86.29-23.95 86.82-25.45 87.34-26.95 87.77-28.35 88.19-29.75 88.49-30.9L88.49-30.9Q86.39-30.65 84.52-30.48 82.64-30.3 81.19-30.3ZM99.69-0.85L99.69-0.85Q99.69-2.6 100.04-4.98 100.39-7.35 101.06-10.05 101.74-12.75 102.66-15.7 103.59-18.65 104.74-21.6L104.74-21.6Q105.74-24.25 107.06-26.95 108.39-29.65 109.94-32.25 111.49-34.85 113.16-37.2 114.84-39.55 116.54-41.5L116.54-41.5Q117.34-41.5 118.26-41.3 119.19-41.1 120.06-40.78 120.94-40.45 121.66-40 122.39-39.55 122.84-39.1L122.84-39.1Q119.09-35.25 116.09-31.33 113.09-27.4 111.34-23.95L111.34-23.95Q110.39-22.05 109.61-20.4 108.84-18.75 108.19-17.13 107.54-15.5 107.01-13.88 106.49-12.25 106.04-10.45L106.04-10.45Q115.64-22.7 120.29-22.7L120.29-22.7Q121.59-22.7 123.09-21.85 124.59-21 125.74-19.55L125.74-19.55Q124.19-17.85 122.54-15.45 120.89-13.05 119.51-10.63 118.14-8.2 117.26-6.13 116.39-4.05 116.39-3.05L116.39-3.05Q116.39-2.55 116.54-2.38 116.69-2.2 117.19-2.2L117.19-2.2Q117.94-2.2 118.39-2.4 118.84-2.6 118.94-2.6L118.94-2.6Q119.19-2.2 119.24-2.05 119.29-1.9 119.29-1.8L119.29-1.8Q119.29-1.6 118.69-1.23 118.09-0.85 117.26-0.48 116.44-0.1 115.64 0.2 114.84 0.5 114.44 0.5L114.44 0.5Q113.94 0.5 113.44 0.23 112.94-0.05 112.56-0.5 112.19-0.95 111.96-1.5 111.74-2.05 111.74-2.65L111.74-2.65Q111.74-3.4 112.16-4.88 112.59-6.35 113.34-8.33 114.09-10.3 115.14-12.65 116.19-15 117.39-17.45L117.39-17.45Q117.39-17.65 117.19-17.65L117.19-17.65Q117.04-17.65 116.41-17.25 115.79-16.85 115.24-16.45L115.24-16.45Q113.44-15.1 111.61-13.13 109.79-11.15 108.06-8.8 106.34-6.45 104.81-3.83 103.29-1.2 102.19 1.45L102.19 1.45Q102.04 1.8 101.74 2.1 101.44 2.4 101.24 2.4L101.24 2.4Q101.09 2.4 100.81 2.05 100.54 1.7 100.31 1.18 100.09 0.65 99.89 0.1 99.69-0.45 99.69-0.85ZM143.49-20.7L143.49-20.7Q143.29-17.6 142.39-15.38 141.49-13.15 139.81-11.48 138.14-9.8 135.74-8.45 133.34-7.1 130.14-5.85L130.14-5.85Q130.14-5.55 130.11-5.23 130.09-4.9 130.09-4.55L130.09-4.55Q130.09-3.9 130.19-3.2 130.29-2.5 130.54-1.9 130.79-1.3 131.24-0.93 131.69-0.55 132.39-0.55L132.39-0.55Q133.74-0.55 135.04-1.15 136.34-1.75 137.51-2.63 138.69-3.5 139.71-4.53 140.74-5.55 141.54-6.4L141.54-6.4Q142.04-5.95 142.39-5.55L142.39-5.55Q140.14-2.55 137.46-0.58 134.79 1.4 132.39 1.95L132.39 1.95Q128.94 1.55 127.01-0.58 125.09-2.7 125.09-5.7L125.09-5.7Q125.09-7.75 125.66-9.88 126.24-12 127.26-13.98 128.29-15.95 129.66-17.7 131.04-19.45 132.61-20.75 134.19-22.05 135.86-22.8 137.54-23.55 139.19-23.55L139.19-23.55Q141.49-23.25 143.49-20.7ZM140.04-19.05L140.04-19.05Q138.69-18.85 137.24-17.95 135.79-17.05 134.51-15.55 133.24-14.05 132.19-12.05 131.14-10.05 130.54-7.75L130.54-7.75Q134.54-9.75 137.19-12.68 139.84-15.6 140.04-19.05ZM191.93-26.95L191.93-26.95Q191.93-24.2 190.56-21.7 189.18-19.2 186.86-17.32 184.53-15.45 181.41-14.35 178.28-13.25 174.78-13.25L174.78-13.25Q173.53-13.25 172.81-13.58 172.08-13.9 171.18-14.85L171.18-14.85Q168.68-9.4 167.11-4.83 165.53-0.25 164.63 4.05L164.63 4.05Q162.73 3.6 161.53 2.48 160.33 1.35 159.33-0.35L159.33-0.35Q159.83-1.3 160.53-2.85 161.23-4.4 162.23-6.68 163.23-8.95 164.56-12.13 165.88-15.3 167.68-19.55L167.68-19.55Q168.48-21.5 169.08-22.95 169.68-24.4 170.13-25.68 170.58-26.95 170.96-28.2 171.33-29.45 171.73-30.95L171.73-30.95Q169.38-30.2 167.41-29.2 165.43-28.2 164.13-27.1L164.13-27.1Q163.68-27.4 163.21-28 162.73-28.6 162.33-29.33 161.93-30.05 161.63-30.8 161.33-31.55 161.28-32.15L161.28-32.15Q162.73-33.15 164.88-34 167.03-34.85 169.48-35.48 171.93-36.1 174.56-36.45 177.18-36.8 179.58-36.8L179.58-36.8Q182.43-36.8 184.73-36.08 187.03-35.35 188.63-34.05 190.23-32.75 191.08-30.95 191.93-29.15 191.93-26.95ZM183.03-32.95L183.03-32.95Q181.13-32.95 179.13-32.65L179.13-32.65 179.73-31.75Q179.23-31.1 178.48-29.8 177.73-28.5 176.83-26.68 175.93-24.85 174.86-22.6 173.78-20.35 172.58-17.85L172.58-17.85Q176.48-17.85 179.68-18.57 182.88-19.3 185.16-20.58 187.43-21.85 188.71-23.55 189.98-25.25 189.98-27.2L189.98-27.2Q189.98-29.8 188.23-31.38 186.48-32.95 183.03-32.95ZM194.83 1.75L194.83 1.75Q191.98 1.45 190.28-0.75 188.58-2.95 188.58-6.35L188.58-6.35Q188.58-8.35 189.18-10.5 189.78-12.65 190.88-14.68 191.98-16.7 193.48-18.5 194.98-20.3 196.73-21.6L196.73-21.6Q199.48-23.65 201.88-23.65L201.88-23.65Q203.48-22.8 205.03-20.1L205.03-20.1Q205.28-20.1 205.48-20.13 205.68-20.15 205.93-20.15L205.93-20.15Q208.58-20.15 208.58-15.45L208.58-15.45Q208.58-12.3 207.55-9.47 206.53-6.65 204.7-4.35 202.88-2.05 200.35-0.48 197.83 1.1 194.83 1.75ZM197.38-14L197.38-14Q196.53-12.85 195.78-11.5 195.03-10.15 194.48-8.78 193.93-7.4 193.63-6.13 193.33-4.85 193.33-3.85L193.33-3.85Q193.33-2.65 193.73-1.55 194.13-0.45 194.63-0.3L194.63-0.3Q196.88-0.8 198.75-2.18 200.63-3.55 202-5.6 203.38-7.65 204.15-10.25 204.93-12.85 204.93-15.8L204.93-15.8Q204.93-17.1 204.78-17.85 204.63-18.6 204.28-19.15L204.28-19.15Q202.08-18.5 200.35-17.05 198.63-15.6 197.38-14ZM228.23-19.9L228.23-19.9Q228.18-18.95 227.9-17.93 227.63-16.9 227.23-16.07 226.83-15.25 226.38-14.7 225.93-14.15 225.53-14.15L225.53-14.15Q224.98-14.2 224.88-14.9L224.88-14.9Q224.88-15.05 225-15.38 225.13-15.7 225.28-16.1 225.43-16.5 225.55-16.9 225.68-17.3 225.68-17.6L225.68-17.6Q225.68-18.3 225.35-18.78 225.03-19.25 224.48-19.25L224.48-19.25Q222.48-19.25 221.43-16.75 220.38-14.25 220.38-9.4L220.38-9.4Q220.38-8.9 220.43-8.8L220.43-8.8Q221.48-8.85 222.3-8.88 223.13-8.9 223.93-8.9L223.93-8.9Q223.98-8.8 223.98-8.5L223.98-8.5Q223.98-8.05 223.78-7.85L223.78-7.85Q222.63-7.6 221.95-7.43 221.28-7.25 220.93-7.1 220.58-6.95 220.5-6.78 220.43-6.6 220.43-6.3L220.43-6.3Q220.43-5.9 220.45-5.5 220.48-5.1 220.48-4.5L220.48-4.5Q220.48-0.3 218.2 2.25 215.93 4.8 211.88 5.2L211.88 5.2Q211.18 5.15 210.43 4.8 209.68 4.45 209 3.9 208.33 3.35 207.83 2.68 207.33 2 207.13 1.3L207.13 1.3Q207.13-0.6 207.93-2.33 208.73-4.05 210.1-5.38 211.48-6.7 213.35-7.53 215.23-8.35 217.43-8.5L217.43-8.5Q217.43-9.75 217.18-10.95 216.93-12.15 216.65-13.28 216.38-14.4 216.13-15.48 215.88-16.55 215.88-17.6L215.88-17.6Q215.88-18.95 216.43-20.28 216.98-21.6 217.88-22.73 218.78-23.85 219.98-24.65 221.18-25.45 222.48-25.75L222.48-25.75Q223.03-25.6 223.95-24.88 224.88-24.15 225.78-23.25 226.68-22.35 227.38-21.43 228.08-20.5 228.23-19.9ZM211.73 2.9L211.73 2.9Q212.93 2.4 214 1.45 215.08 0.5 215.88-0.7 216.68-1.9 217.15-3.25 217.63-4.6 217.63-5.9L217.63-5.9Q216.63-5.75 215.43-4.98 214.23-4.2 213.18-3.13 212.13-2.05 211.43-0.9 210.73 0.25 210.73 1.1L210.73 1.1Q210.73 2.2 211.73 2.9ZM234.07-19.15L231.22-19.15Q230.97-19.45 230.77-20.43 230.57-21.4 230.57-22.1L230.57-22.1Q231.87-22 233.07-21.93 234.27-21.85 235.27-21.8L235.27-21.8Q236.02-23.3 236.9-24.78 237.77-26.25 238.6-27.48 239.42-28.7 240.15-29.55 240.87-30.4 241.27-30.65L241.27-30.65Q241.77-30.65 242.55-30.48 243.32-30.3 244.12-30.03 244.92-29.75 245.57-29.45 246.22-29.15 246.47-28.85L246.47-28.85Q244.97-26.95 243.9-25.33 242.82-23.7 241.57-21.6L241.57-21.6Q242.57-21.6 243.6-21.65 244.62-21.7 245.67-21.8L245.67-21.8Q245.92-21.55 246.07-21.18 246.22-20.8 246.22-20.4L246.22-20.4Q243.77-19.5 240.27-19.4L240.27-19.4Q239.02-17 238.05-14.63 237.07-12.25 236.4-10.05 235.72-7.85 235.35-5.9 234.97-3.95 234.97-2.4L234.97-2.4Q234.97-0.2 236.62 0.05L236.62 0.05Q238.12-0.15 239.47-0.7 240.82-1.25 241.87-2.1L241.87-2.1Q242.17-1.65 242.22-1.35L242.22-1.35Q241.92-0.9 241.2-0.3 240.47 0.3 239.62 0.88 238.77 1.45 237.97 1.85 237.17 2.25 236.77 2.3L236.77 2.3Q235.52 2.25 234.27 1.75 233.02 1.25 232 0.5 230.97-0.25 230.32-1.18 229.67-2.1 229.67-3L229.67-3Q229.67-4.2 230-6.03 230.32-7.85 230.92-10 231.52-12.15 232.32-14.5 233.12-16.85 234.07-19.15L234.07-19.15ZM263.77-20.7L263.77-20.7Q263.57-17.6 262.67-15.38 261.77-13.15 260.1-11.48 258.42-9.8 256.02-8.45 253.62-7.1 250.42-5.85L250.42-5.85Q250.42-5.55 250.4-5.23 250.37-4.9 250.37-4.55L250.37-4.55Q250.37-3.9 250.47-3.2 250.57-2.5 250.82-1.9 251.07-1.3 251.52-0.93 251.97-0.55 252.67-0.55L252.67-0.55Q254.02-0.55 255.32-1.15 256.62-1.75 257.8-2.63 258.97-3.5 260-4.53 261.02-5.55 261.82-6.4L261.82-6.4Q262.32-5.95 262.67-5.55L262.67-5.55Q260.42-2.55 257.75-0.58 255.07 1.4 252.67 1.95L252.67 1.95Q249.22 1.55 247.3-0.58 245.37-2.7 245.37-5.7L245.37-5.7Q245.37-7.75 245.95-9.88 246.52-12 247.55-13.98 248.57-15.95 249.95-17.7 251.32-19.45 252.9-20.75 254.47-22.05 256.15-22.8 257.82-23.55 259.47-23.55L259.47-23.55Q261.77-23.25 263.77-20.7ZM260.32-19.05L260.32-19.05Q258.97-18.85 257.52-17.95 256.07-17.05 254.8-15.55 253.52-14.05 252.47-12.05 251.42-10.05 250.82-7.75L250.82-7.75Q254.82-9.75 257.47-12.68 260.12-15.6 260.32-19.05ZM264.87-1L264.87-1Q265.12-2.45 265.74-4.83 266.37-7.2 267.22-9.88 268.07-12.55 269.02-15.25 269.97-17.95 270.87-20.1L270.87-20.1Q271.52-21.65 272.02-22.53 272.52-23.4 273.12-24L273.12-24Q273.82-23.9 274.57-23.65 275.32-23.4 276.02-23.05 276.72-22.7 277.27-22.33 277.82-21.95 278.12-21.6L278.12-21.6Q276.77-20 275.74-17.95 274.72-15.9 273.67-12.7L273.67-12.7Q276.37-15.1 278.44-17.3 280.52-19.5 282.32-22.2L282.32-22.2Q282.62-22.45 283.37-22.45L283.37-22.45Q284.07-22.45 284.72-22.23 285.37-22 285.62-21.6L285.62-21.6Q284.72-19.2 284.72-16.85L284.72-16.85Q284.72-14.65 285.37-13.55L285.37-13.55Q285.32-13.25 284.69-12.4 284.07-11.55 283.32-10.8L283.32-10.8Q281.97-11.5 280.92-12.73 279.87-13.95 279.37-15.4L279.37-15.4Q277.02-13.75 275.37-12.18 273.72-10.6 272.54-8.68 271.37-6.75 270.54-4.25 269.72-1.75 268.97 1.7L268.97 1.7Q268.52 1.65 267.89 1.38 267.27 1.1 266.64 0.7 266.02 0.3 265.52-0.15 265.02-0.6 264.87-1ZM316.76-17.25L316.76-17.25Q320.51-21.35 323.49-25.95 326.46-30.55 329.01-36.3L329.01-36.3Q330.31-36.15 331.51-35.6 332.71-35.05 333.41-34.35L333.41-34.35Q330.66-31.05 328.44-28.35 326.21-25.65 324.36-23.28 322.51-20.9 320.94-18.73 319.36-16.55 317.86-14.35L317.86-14.35Q317.11-11.8 316.46-9.2 315.81-6.6 315.31-4.23 314.81-1.85 314.54 0.18 314.26 2.2 314.26 3.65L314.26 3.65Q313.71 3.65 312.51 3.43 311.31 3.2 310.06 2.9 308.81 2.6 307.79 2.3 306.76 2 306.56 1.8L306.56 1.8Q307.36 0.45 308.14-1.53 308.91-3.5 309.66-5.68 310.41-7.85 311.11-10.08 311.81-12.3 312.41-14.2L312.41-14.2Q311.16-18.1 309.99-21.53 308.81-24.95 307.71-27.73 306.61-30.5 305.61-32.5 304.61-34.5 303.71-35.55L303.71-35.55Q304.21-35.75 305.24-35.95 306.26-36.15 307.49-36.35 308.71-36.55 309.99-36.68 311.26-36.8 312.26-36.85L312.26-36.85Q312.26-35.6 312.49-33.8 312.71-32 313.09-29.95 313.46-27.9 313.96-25.8 314.46-23.7 314.96-21.95 315.46-20.2 315.94-18.93 316.41-17.65 316.76-17.25ZM330.61 1.75L330.61 1.75Q327.76 1.45 326.06-0.75 324.36-2.95 324.36-6.35L324.36-6.35Q324.36-8.35 324.96-10.5 325.56-12.65 326.66-14.68 327.76-16.7 329.26-18.5 330.76-20.3 332.51-21.6L332.51-21.6Q335.26-23.65 337.66-23.65L337.66-23.65Q339.26-22.8 340.81-20.1L340.81-20.1Q341.06-20.1 341.26-20.13 341.46-20.15 341.71-20.15L341.71-20.15Q344.36-20.15 344.36-15.45L344.36-15.45Q344.36-12.3 343.33-9.47 342.31-6.65 340.48-4.35 338.66-2.05 336.13-0.48 333.61 1.1 330.61 1.75ZM333.16-14L333.16-14Q332.31-12.85 331.56-11.5 330.81-10.15 330.26-8.78 329.71-7.4 329.41-6.13 329.11-4.85 329.11-3.85L329.11-3.85Q329.11-2.65 329.51-1.55 329.91-0.45 330.41-0.3L330.41-0.3Q332.66-0.8 334.53-2.18 336.41-3.55 337.78-5.6 339.16-7.65 339.93-10.25 340.71-12.85 340.71-15.8L340.71-15.8Q340.71-17.1 340.56-17.85 340.41-18.6 340.06-19.15L340.06-19.15Q337.86-18.5 336.13-17.05 334.41-15.6 333.16-14ZM360.36-1.1L360.36-1.1Q359.41-1.9 359.08-3.1 358.76-4.3 358.76-5.15L358.76-5.15Q358.76-6.2 359.01-6.95L359.01-6.95Q358.81-6.95 358.11-6.15 357.41-5.35 356.58-4.25 355.76-3.15 354.96-2.1 354.16-1.05 353.76-0.55L353.76-0.55Q353.11 0.15 352.53 0.55 351.96 0.95 351.61 1L351.61 1Q350.81 0.95 349.93 0.68 349.06 0.4 348.28-0.1 347.51-0.6 346.93-1.3 346.36-2 346.16-2.9L346.16-2.9Q346.16-4.3 346.23-5.2 346.31-6.1 346.56-7.15L346.56-7.15Q347.01-9.05 347.88-11.45 348.76-13.85 349.91-16.18 351.06-18.5 352.48-20.53 353.91-22.55 355.51-23.7L355.51-23.7Q355.96-23.7 356.56-23.63 357.16-23.55 357.78-23.35 358.41-23.15 358.98-22.88 359.56-22.6 359.96-22.15L359.96-22.15Q359.51-21.65 357.68-18.8 355.86-15.95 353.61-10.6L353.61-10.6Q353.36-10.05 353.01-9 352.66-7.95 352.31-6.8 351.96-5.65 351.73-4.55 351.51-3.45 351.51-2.8L351.51-2.8Q351.51-2.4 351.63-2.2 351.76-2 351.86-1.9L351.86-1.9Q352.61-2.2 353.76-3.55 354.91-4.9 356.96-7.7L356.96-7.7Q357.46-8.4 358.13-9.3 358.81-10.2 359.51-11.23 360.21-12.25 360.83-13.35 361.46-14.45 361.86-15.55L361.86-15.55Q362.06-16.15 362.38-16.98 362.71-17.8 363.18-18.7 363.66-19.6 364.28-20.53 364.91-21.45 365.76-22.25L365.76-22.25Q366.41-22.25 367.16-22.1 367.91-21.95 368.58-21.73 369.26-21.5 369.76-21.23 370.26-20.95 370.51-20.65L370.51-20.65Q369.61-18.45 368.51-16.3 367.41-14.15 366.46-12.08 365.51-10 364.86-7.95 364.21-5.9 364.21-3.95L364.21-3.95Q364.21-2.9 364.38-2.13 364.56-1.35 364.76-0.83 364.96-0.3 365.13 0.05 365.31 0.4 365.31 0.65L365.31 0.65Q365.31 0.7 365.21 0.8L365.21 0.8Q365.16 0.85 365.11 0.85L365.11 0.85Q364.76 0.85 364.21 0.7 363.66 0.55 362.98 0.28 362.31 0 361.63-0.35 360.96-0.7 360.36-1.1ZM388 3.8L388 3.8Q385.15 2.95 384.15 2.18 383.15 1.4 383.15 0.05L383.15 0.05Q383.15-1.45 383.85-4.17 384.55-6.9 385.68-10.25 386.8-13.6 388.25-17.25 389.7-20.9 391.2-24.25 392.7-27.6 394.13-30.38 395.55-33.15 396.65-34.7L396.65-34.7 396.3-36.8Q397-36.8 398.25-36.45 399.5-36.1 400.78-35.6 402.05-35.1 403.03-34.58 404-34.05 404.1-33.7L404.1-33.7Q403.85-32.5 403.7-30.08 403.55-27.65 403.55-24.9L403.55-24.9Q403.55-19.45 403.98-14.23 404.4-9 405.95-3.6L405.95-3.6Q406.75-7.6 407.68-11.58 408.6-15.55 409.6-19.18 410.6-22.8 411.6-25.9 412.6-29 413.53-31.33 414.45-33.65 415.25-34.98 416.05-36.3 416.7-36.4L416.7-36.4Q417.25-36.3 417.9-35.98 418.55-35.65 419.15-35.2 419.75-34.75 420.25-34.2 420.75-33.65 421.05-33.1L421.05-33.1Q419.45-32.45 417.88-30.05 416.3-27.65 414.88-24.23 413.45-20.8 412.23-16.8 411-12.8 410.08-8.93 409.15-5.05 408.63-1.75 408.1 1.55 408.05 3.55L408.05 3.55Q408.05 3.65 408.1 3.7L408.1 3.7Q407.95 3.75 407.78 3.75 407.6 3.75 407.45 3.75L407.45 3.75Q405.15 3.75 403.38 3.18 401.6 2.6 401.05 1.55L401.05 1.55Q400-2.65 399.3-6.55 398.6-10.45 398.13-14.35 397.65-18.25 397.38-22.23 397.1-26.2 396.95-30.55L396.95-30.55Q396-29.05 394.95-26.63 393.9-24.2 392.9-21.3 391.9-18.4 390.98-15.2 390.05-12 389.35-8.95 388.65-5.9 388.25-3.18 387.85-0.45 387.85 1.55L387.85 1.55Q387.85 2.6 387.88 3.05 387.9 3.5 388 3.8ZM434.05-20.7L434.05-20.7Q433.85-17.6 432.95-15.38 432.05-13.15 430.37-11.48 428.7-9.8 426.3-8.45 423.9-7.1 420.7-5.85L420.7-5.85Q420.7-5.55 420.67-5.23 420.65-4.9 420.65-4.55L420.65-4.55Q420.65-3.9 420.75-3.2 420.85-2.5 421.1-1.9 421.35-1.3 421.8-0.93 422.25-0.55 422.95-0.55L422.95-0.55Q424.3-0.55 425.6-1.15 426.9-1.75 428.07-2.63 429.25-3.5 430.27-4.53 431.3-5.55 432.1-6.4L432.1-6.4Q432.6-5.95 432.95-5.55L432.95-5.55Q430.7-2.55 428.02-0.58 425.35 1.4 422.95 1.95L422.95 1.95Q419.5 1.55 417.57-0.58 415.65-2.7 415.65-5.7L415.65-5.7Q415.65-7.75 416.22-9.88 416.8-12 417.82-13.98 418.85-15.95 420.22-17.7 421.6-19.45 423.17-20.75 424.75-22.05 426.42-22.8 428.1-23.55 429.75-23.55L429.75-23.55Q432.05-23.25 434.05-20.7ZM430.6-19.05L430.6-19.05Q429.25-18.85 427.8-17.95 426.35-17.05 425.07-15.55 423.8-14.05 422.75-12.05 421.7-10.05 421.1-7.75L421.1-7.75Q425.1-9.75 427.75-12.68 430.4-15.6 430.6-19.05ZM454.25-20.7L454.25-20.7Q454.05-17.6 453.15-15.38 452.25-13.15 450.57-11.48 448.9-9.8 446.5-8.45 444.1-7.1 440.9-5.85L440.9-5.85Q440.9-5.55 440.87-5.23 440.85-4.9 440.85-4.55L440.85-4.55Q440.85-3.9 440.95-3.2 441.05-2.5 441.3-1.9 441.55-1.3 442-0.93 442.45-0.55 443.15-0.55L443.15-0.55Q444.5-0.55 445.8-1.15 447.1-1.75 448.27-2.63 449.45-3.5 450.47-4.53 451.5-5.55 452.3-6.4L452.3-6.4Q452.8-5.95 453.15-5.55L453.15-5.55Q450.9-2.55 448.22-0.58 445.55 1.4 443.15 1.95L443.15 1.95Q439.7 1.55 437.77-0.58 435.85-2.7 435.85-5.7L435.85-5.7Q435.85-7.75 436.42-9.88 437-12 438.02-13.98 439.05-15.95 440.42-17.7 441.8-19.45 443.37-20.75 444.95-22.05 446.62-22.8 448.3-23.55 449.95-23.55L449.95-23.55Q452.25-23.25 454.25-20.7ZM450.8-19.05L450.8-19.05Q449.45-18.85 448-17.95 446.55-17.05 445.27-15.55 444-14.05 442.95-12.05 441.9-10.05 441.3-7.75L441.3-7.75Q445.3-9.75 447.95-12.68 450.6-15.6 450.8-19.05ZM467.44-23.35L467.44-23.35Q468.44-23.35 469.74-22.75 471.04-22.15 472.04-21.2L472.04-21.2Q471.79-23.2 471.42-24.98 471.04-26.75 470.32-28.65 469.59-30.55 468.39-32.8 467.19-35.05 465.39-37.95L465.39-37.95Q465.54-38.4 466.07-39 466.59-39.6 467.27-40.13 467.94-40.65 468.67-41.05 469.39-41.45 470.04-41.55L470.04-41.55Q471.44-40 472.69-37.68 473.94-35.35 474.89-32.68 475.84-30 476.37-27.15 476.89-24.3 476.89-21.7L476.89-21.7Q476.89-19.1 476.32-16.35 475.74-13.6 474.72-10.98 473.69-8.35 472.34-6 470.99-3.65 469.42-1.8 467.84 0.05 466.14 1.23 464.44 2.4 462.74 2.7L462.74 2.7Q459.29 2.3 457.47 0.48 455.64-1.35 455.64-4.55L455.64-4.55Q455.64-6.25 456.17-8.25 456.69-10.25 457.57-12.23 458.44-14.2 459.62-16.07 460.79-17.95 462.12-19.45 463.44-20.95 464.79-22 466.14-23.05 467.44-23.35ZM462.34 0.7L462.34 0.7Q464.09 0.1 465.84-1.95 467.59-4 468.99-6.78 470.39-9.55 471.27-12.73 472.14-15.9 472.14-18.85L472.14-18.85Q472.14-19.7 472.14-19.9 472.14-20.1 472.09-20.3L472.09-20.3Q470.89-19.8 469.54-18.6 468.19-17.4 466.84-15.83 465.49-14.25 464.29-12.4 463.09-10.55 462.14-8.7 461.19-6.85 460.64-5.15 460.09-3.45 460.09-2.15L460.09-2.15Q460.09 0.35 462.34 0.7ZM480.49-9.4L480.49-9.4Q480.49-10.75 481.22-13.33 481.94-15.9 483.09-19.03 484.24-22.15 485.69-25.48 487.14-28.8 488.62-31.7 490.09-34.6 491.44-36.73 492.79-38.85 493.79-39.55L493.79-39.55Q494.59-39.4 495.52-38.83 496.44-38.25 497.24-37.52 498.04-36.8 498.64-36 499.24-35.2 499.34-34.6L499.34-34.6Q496.79-32.5 494.29-29.38 491.79-26.25 489.67-22.45 487.54-18.65 485.94-14.33 484.34-10 483.54-5.5L483.54-5.5Q482.94-5.65 482.37-5.88 481.79-6.1 481.39-6.5 480.99-6.9 480.74-7.6 480.49-8.3 480.49-9.4ZM479.39 3.85L479.39 3.85Q478.79 3.85 478.24 3.58 477.69 3.3 477.27 2.93 476.84 2.55 476.59 2.13 476.34 1.7 476.34 1.45L476.34 1.45Q476.34 0.85 476.49-0.1 476.64-1.05 476.94-1.93 477.24-2.8 477.69-3.43 478.14-4.05 478.69-4.05L478.69-4.05Q480.09-4.05 481.52-3.08 482.94-2.1 483.64-0.9L483.64-0.9Q483.04-0.25 482.59 0.58 482.14 1.4 481.69 2.13 481.24 2.85 480.69 3.35 480.14 3.85 479.39 3.85Z" opacity="1" transform="matrix(1,0,0,1,0,0)" fill="#1ebbd7" class="undefined-text-0" data-fill-palette-color="primary" id="text-0"></path></svg></g></svg></g></svg></g></svg></g><g><svg viewBox="0 0 66.84539726248808 97.52853043215474" height="97.52853043215474" width="66.84539726248808"><g><svg xmlns="http://www.w3.org/2000/svg" xmlns:xlink="http://www.w3.org/1999/xlink" version="1.1" x="0" y="0" viewBox="18.600000381469727 4.5 61 89" style="enable-background:new 0 0 100 100;" xml:space="preserve" height="97.52853043215474" width="66.84539726248808" class="icon-icon-0" data-fill-palette-color="accent" id="icon-0"><path d="M77.2 91.9H20.8V6.6h56.4V91.9zM22.8 89.9h52.4V8.6H22.8V89.9z" fill="#1ebbd7" data-fill-palette-color="accent"></path><rect x="18.6" y="12" width="6" height="1" fill="#1ebbd7" data-fill-palette-color="accent"></rect><rect x="26.1" y="4.5" width="1" height="6" fill="#1ebbd7" data-fill-palette-color="accent"></rect><rect x="73.6" y="12" width="6" height="1" fill="#1ebbd7" data-fill-palette-color="accent"></rect><rect x="71.1" y="4.5" width="1" height="6" fill="#1ebbd7" data-fill-palette-color="accent"></rect><rect x="18.6" y="85" width="6" height="1" fill="#1ebbd7" data-fill-palette-color="accent"></rect><rect x="26.1" y="87.5" width="1" height="6" fill="#1ebbd7" data-fill-palette-color="accent"></rect><rect x="73.6" y="85" width="6" height="1" fill="#1ebbd7" data-fill-palette-color="accent"></rect><rect x="71.1" y="87.5" width="1" height="6" fill="#1ebbd7" data-fill-palette-color="accent"></rect><path d="M26 12.5v73h46v-73H26zM57.4 29.7l8.6 12h-6.8L54 34.5 57.4 29.7zM57.8 41.7H33.3l12.3-17.1L57.8 41.7zM35.1 20.4c1.7 0 3.2 1.4 3.2 3.2 0 1.7-1.4 3.2-3.2 3.2-1.7 0-3.2-1.4-3.2-3.2C32 21.8 33.4 20.4 35.1 20.4zM32.9 46.8h32.2c0.6 0 1.1 0.5 1.1 1.1 0 0.6-0.5 1.1-1.1 1.1H32.9c-0.6 0-1.1-0.5-1.1-1.1C31.8 47.3 32.3 46.8 32.9 46.8zM32.9 51.8h32.2c0.6 0 1.1 0.5 1.1 1.1 0 0.6-0.5 1.1-1.1 1.1H32.9c-0.6 0-1.1-0.5-1.1-1.1C31.8 52.3 32.3 51.8 32.9 51.8zM32.9 56.8h32.2c0.6 0 1.1 0.5 1.1 1.1 0 0.6-0.5 1.1-1.1 1.1H32.9c-0.6 0-1.1-0.5-1.1-1.1C31.8 57.3 32.3 56.8 32.9 56.8zM32.9 61.8h32.2c0.6 0 1.1 0.5 1.1 1.1 0 0.6-0.5 1.1-1.1 1.1H32.9c-0.6 0-1.1-0.5-1.1-1.1C31.8 62.3 32.3 61.8 32.9 61.8zM66.2 67.9c0 0.6-0.5 1.1-1.1 1.1H46.8c-0.6 0-1.1-0.5-1.1-1.1 0-0.6 0.5-1.1 1.1-1.1h18.3C65.7 66.8 66.2 67.3 66.2 67.9zM36.1 82.7h-4.2v-3.3h4.2V82.7zM44 83.2c-1.2 0-2.1-0.9-2.1-2.1S42.8 79 44 79c1.2 0 2.1 0.9 2.1 2.1S45.2 83.2 44 83.2zM55.1 82.9h-2.2l-1.1-1.9 1.1-1.9h2.2l1.1 1.9L55.1 82.9zM61.9 82.7L64 79l2.1 3.8H61.9zM66.2 75.4H31.8c-0.1 0-0.3-0.1-0.3-0.3s0.1-0.3 0.3-0.3h34.4c0.1 0 0.3 0.1 0.3 0.3S66.4 75.4 66.2 75.4z" fill="#1ebbd7" data-fill-palette-color="accent"></path></svg></g></svg></g></svg></g><defs></defs></svg><rect width="395.52" height="81.87131389250182" fill="none" stroke="none" visibility="hidden"></rect></g></svg></g></svg>