<svg xmlns="http://www.w3.org/2000/svg" version="1.1" xmlns:xlink="http://www.w3.org/1999/xlink" xmlns:svgjs="http://svgjs.dev/svgjs" width="128" height="128" viewBox="0 0 128 128"><g transform="matrix(0.5508021390374331,0,0,0.5508021390374331,28.988390473241218,12.760752631578946)"><svg viewBox="0 0 65 95" data-background-color="#ffffff" preserveAspectRatio="xMidYMid meet" height="187" width="128" xmlns="http://www.w3.org/2000/svg" xmlns:xlink="http://www.w3.org/1999/xlink"><g id="tight-bounds" transform="matrix(1,0,0,1,-0.22101685393256787,-0.24049999999999727)"><svg viewBox="0 0 65.44203370786515 95.481" height="95.481" width="65.44203370786515"><g><svg viewBox="0 0 65.44203370786515 95.481" height="95.481" width="65.44203370786515"><g><svg viewBox="0 0 65.44203370786515 95.481" height="95.481" width="65.44203370786515"><g id="textblocktransform"><svg viewBox="0 0 65.44203370786515 95.481" height="95.481" width="65.44203370786515" id="textblock"><g><svg viewBox="0 0 65.44203370786515 95.481" height="95.481" width="65.44203370786515"><g><svg viewBox="0 0 65.44203370786515 95.481" height="95.481" width="65.44203370786515"><g><svg xmlns="http://www.w3.org/2000/svg" xmlns:xlink="http://www.w3.org/1999/xlink" version="1.1" x="0" y="0" viewBox="18.6 4.5 60.99999999999999 89" style="enable-background:new 0 0 100 100;" xml:space="preserve" height="95.481" width="65.44203370786515" class="icon-icon-0" data-fill-palette-color="accent" id="icon-0"><path d="M77.2 91.9H20.8V6.6h56.4V91.9zM22.8 89.9h52.4V8.6H22.8V89.9z" fill="#1ebbd7" data-fill-palette-color="accent"></path><rect x="18.6" y="12" width="6" height="1" fill="#1ebbd7" data-fill-palette-color="accent"></rect><rect x="26.1" y="4.5" width="1" height="6" fill="#1ebbd7" data-fill-palette-color="accent"></rect><rect x="73.6" y="12" width="6" height="1" fill="#1ebbd7" data-fill-palette-color="accent"></rect><rect x="71.1" y="4.5" width="1" height="6" fill="#1ebbd7" data-fill-palette-color="accent"></rect><rect x="18.6" y="85" width="6" height="1" fill="#1ebbd7" data-fill-palette-color="accent"></rect><rect x="26.1" y="87.5" width="1" height="6" fill="#1ebbd7" data-fill-palette-color="accent"></rect><rect x="73.6" y="85" width="6" height="1" fill="#1ebbd7" data-fill-palette-color="accent"></rect><rect x="71.1" y="87.5" width="1" height="6" fill="#1ebbd7" data-fill-palette-color="accent"></rect><path d="M26 12.5v73h46v-73H26zM57.4 29.7l8.6 12h-6.8L54 34.5 57.4 29.7zM57.8 41.7H33.3l12.3-17.1L57.8 41.7zM35.1 20.4c1.7 0 3.2 1.4 3.2 3.2 0 1.7-1.4 3.2-3.2 3.2-1.7 0-3.2-1.4-3.2-3.2C32 21.8 33.4 20.4 35.1 20.4zM32.9 46.8h32.2c0.6 0 1.1 0.5 1.1 1.1 0 0.6-0.5 1.1-1.1 1.1H32.9c-0.6 0-1.1-0.5-1.1-1.1C31.8 47.3 32.3 46.8 32.9 46.8zM32.9 51.8h32.2c0.6 0 1.1 0.5 1.1 1.1 0 0.6-0.5 1.1-1.1 1.1H32.9c-0.6 0-1.1-0.5-1.1-1.1C31.8 52.3 32.3 51.8 32.9 51.8zM32.9 56.8h32.2c0.6 0 1.1 0.5 1.1 1.1 0 0.6-0.5 1.1-1.1 1.1H32.9c-0.6 0-1.1-0.5-1.1-1.1C31.8 57.3 32.3 56.8 32.9 56.8zM32.9 61.8h32.2c0.6 0 1.1 0.5 1.1 1.1 0 0.6-0.5 1.1-1.1 1.1H32.9c-0.6 0-1.1-0.5-1.1-1.1C31.8 62.3 32.3 61.8 32.9 61.8zM66.2 67.9c0 0.6-0.5 1.1-1.1 1.1H46.8c-0.6 0-1.1-0.5-1.1-1.1 0-0.6 0.5-1.1 1.1-1.1h18.3C65.7 66.8 66.2 67.3 66.2 67.9zM36.1 82.7h-4.2v-3.3h4.2V82.7zM44 83.2c-1.2 0-2.1-0.9-2.1-2.1S42.8 79 44 79c1.2 0 2.1 0.9 2.1 2.1S45.2 83.2 44 83.2zM55.1 82.9h-2.2l-1.1-1.9 1.1-1.9h2.2l1.1 1.9L55.1 82.9zM61.9 82.7L64 79l2.1 3.8H61.9zM66.2 75.4H31.8c-0.1 0-0.3-0.1-0.3-0.3s0.1-0.3 0.3-0.3h34.4c0.1 0 0.3 0.1 0.3 0.3S66.4 75.4 66.2 75.4z" fill="#1ebbd7" data-fill-palette-color="accent"></path></svg></g></svg></g></svg></g></svg></g></svg></g></svg></g><defs></defs></svg><rect width="65.44203370786515" height="95.481" fill="none" stroke="none" visibility="hidden"></rect></g></svg></g></svg>