<svg xmlns="http://www.w3.org/2000/svg" version="1.1" xmlns:xlink="http://www.w3.org/1999/xlink" xmlns:svgjs="http://svgjs.dev/svgjs" width="1000" height="1000" viewBox="0 0 1000 1000"><rect width="1000" height="1000" fill="#ffffff"></rect><g transform="matrix(0.7,0,0,0.7,149.57577929425548,343.6157182779759)"><svg viewBox="0 0 396 177" data-background-color="#ffffff" preserveAspectRatio="xMidYMid meet" height="446" width="1000" xmlns="http://www.w3.org/2000/svg" xmlns:xlink="http://www.w3.org/1999/xlink"><g id="tight-bounds" transform="matrix(1,0,0,1,0.23998771353547,0.1611718923711436)"><svg viewBox="0 0 395.52 176.6776556670059" height="176.6776556670059" width="395.52"><g><svg viewBox="0 0 395.52 176.6776556670059" height="176.6776556670059" width="395.52"><g><svg viewBox="0 0 395.52 176.6776556670059" height="176.6776556670059" width="395.52"><g id="textblocktransform"><svg viewBox="0 0 395.52 176.6776556670059" height="176.6776556670059" width="395.52" id="textblock"><g><svg viewBox="0 0 395.52 136.99308222077335" height="136.99308222077335" width="395.52"><rect width="395.52" height="136.99308222077335" x="0" y="0" opacity="1" fill="#0718c4" data-fill-palette-color="tertiary"></rect><g transform="matrix(1,0,0,1,23.461705032,23.461705032)"><svg width="348.596589936" viewBox="-0.05000000074505806 -42.400001525878906 252.1300048828125 65.1500015258789" height="90.06967215677335" data-palette-color="#ffffff"><path d="M11.6 0.25Q9.75 0.25 8.95-0.58 8.15-1.4 8.15-3.7L8.15-3.7Q8.15-5.25 8.47-7.68 8.8-10.1 9.55-14.35L9.55-14.35Q10.85-22.2 11.6-27.95L11.6-27.95Q12.05-31.55 12.05-33.95L12.05-33.95Q12.05-36.2 10.4-36.2L10.4-36.2Q9.1-36.2 7.28-34.88 5.45-33.55 3.25-30.65L3.25-30.65Q2.55-29.7 1.7-29.7L1.7-29.7Q1-29.7 0.48-30.38-0.05-31.05-0.05-31.9L-0.05-31.9Q-0.05-32.7 0.28-33.52 0.6-34.35 1.35-35.4L1.35-35.4Q3.75-38.75 6.7-40.58 9.65-42.4 12.6-42.4L12.6-42.4Q15.35-42.4 16.82-40.65 18.3-38.9 18.3-35.55L18.3-35.55Q18.3-34.2 18.05-32.38 17.8-30.55 17.6-29.4 17.4-28.25 17.3-27.8L17.3-27.8Q20.15-35.95 23.7-39.18 27.25-42.4 31.5-42.4L31.5-42.4Q34.75-42.4 36.63-40.1 38.5-37.8 38.5-33.6L38.5-33.6Q38.5-31.95 38.05-29.5L38.05-29.5Q40.55-36.4 43.9-39.4 47.25-42.4 51.6-42.4L51.6-42.4Q55.1-42.4 56.98-40.15 58.85-37.9 58.85-33.85L58.85-33.85Q58.85-31.65 58.2-28.5L58.2-28.5 55.15-14.2Q54.65-11.7 54.65-9.9L54.65-9.9Q54.65-7.8 55.63-6.75 56.6-5.7 58.35-5.7L58.35-5.7Q60-5.7 61.58-6.8 63.15-7.9 65.3-10.45L65.3-10.45Q65.9-11.15 66.65-11.15L66.65-11.15Q67.3-11.15 67.67-10.55 68.05-9.95 68.05-8.9L68.05-8.9Q68.05-6.95 67.1-5.8L67.1-5.8Q64.5-2.65 61.95-1.2 59.4 0.25 56.6 0.25L56.6 0.25Q52.35 0.25 49.95-2.27 47.55-4.8 47.55-9.05L47.55-9.05Q47.55-12 48.75-17.6L48.75-17.6 50.75-26.75Q50.85-27.2 51.1-28.35 51.35-29.5 51.5-30.53 51.65-31.55 51.65-32.55L51.65-32.55Q51.65-34.3 50.98-35.18 50.3-36.05 49.05-36.05L49.05-36.05Q46.7-36.05 44.13-33.02 41.55-30 39.23-23 36.9-16 35.45-4.8L35.45-4.8Q35.1-1.8 34.23-0.78 33.35 0.25 31.4 0.25L31.4 0.25Q29.7 0.25 28.93-0.55 28.15-1.35 28.15-3.55L28.15-3.55Q28.15-5.6 28.7-8.93 29.25-12.25 30.1-16.75L30.1-16.75Q32.4-28.85 32.4-32.35L32.4-32.35Q32.4-34.25 31.68-35.15 30.95-36.05 29.5-36.05L29.5-36.05Q27.05-36.05 24.45-33.27 21.85-30.5 19.38-23.43 16.9-16.35 15.25-4.3L15.25-4.3Q14.9-1.75 14.23-0.75 13.55 0.25 11.6 0.25L11.6 0.25ZM89.5-15.35Q90.15-15.35 90.5-14.7 90.85-14.05 90.85-13.05L90.85-13.05Q90.85-10.65 89.4-10.2L89.4-10.2Q86.4-9.15 82.8-9L82.8-9Q81.85-4.8 79.05-2.27 76.25 0.25 72.7 0.25L72.7 0.25Q69.7 0.25 67.57-1.2 65.45-2.65 64.35-5.05 63.25-7.45 63.25-10.25L63.25-10.25Q63.25-14.05 64.7-17.03 66.15-20 68.7-21.68 71.25-23.35 74.35-23.35L74.35-23.35Q78.15-23.35 80.47-20.73 82.8-18.1 83.2-14.25L83.2-14.25Q85.55-14.4 88.8-15.25L88.8-15.25Q89.2-15.35 89.5-15.35L89.5-15.35ZM73.1-5.05Q74.7-5.05 75.87-6.35 77.05-7.65 77.45-10.1L77.45-10.1Q75.9-11.15 75.07-12.85 74.25-14.55 74.25-16.45L74.25-16.45Q74.25-17.25 74.4-18.05L74.4-18.05 74.15-18.05Q72.15-18.05 70.82-16.13 69.5-14.2 69.5-10.7L69.5-10.7Q69.5-7.95 70.57-6.5 71.65-5.05 73.1-5.05L73.1-5.05ZM111.8-15.2Q111.95-15.25 112.3-15.25L112.3-15.25Q113.05-15.25 113.45-14.75 113.85-14.25 113.85-13.4L113.85-13.4Q113.85-11.85 113.25-10.98 112.65-10.1 111.45-9.7L111.45-9.7Q109.15-8.95 106.55-8.95L106.55-8.95Q104.35-8.95 102.4-9.55L102.4-9.55Q100.95-7.2 99.2-4.7L99.2-4.7Q97.2-1.85 95.75-0.8 94.3 0.25 92.45 0.25L92.45 0.25Q90.4 0.25 89.22-1.35 88.05-2.95 87.75-6.4L87.75-6.4Q87.15-13.4 87.15-18.65L87.15-18.65 87.15-20.4Q87.2-22.05 88.05-22.7 88.9-23.35 90.6-23.35L90.6-23.35Q91.9-23.35 92.52-22.78 93.15-22.2 93.15-20.85L93.15-20.85Q93.15-15.1 93.85-5.9L93.85-5.9Q96.85-10.35 98.35-13L98.35-13Q97.6-14.45 97.6-16.45L97.6-16.45Q97.6-18.15 98.35-19.75 99.1-21.35 100.4-22.35 101.7-23.35 103.35-23.35L103.35-23.35Q104.8-23.35 105.7-22.33 106.6-21.3 106.6-19.35L106.6-19.35Q106.6-17.1 105.4-14.2L105.4-14.2Q107.3-14.3 110.45-14.95L110.45-14.95 111.8-15.2ZM116.04-26.6Q113.94-26.6 112.89-27.58 111.84-28.55 111.84-30.3L111.84-30.3Q111.84-32.05 113.22-33.23 114.59-34.4 116.64-34.4L116.64-34.4Q118.49-34.4 119.64-33.5 120.79-32.6 120.79-30.95L120.79-30.95Q120.79-28.95 119.49-27.78 118.19-26.6 116.04-26.6L116.04-26.6ZM115.64 0.25Q112.39 0.25 110.92-2.05 109.44-4.35 109.44-8.15L109.44-8.15Q109.44-10.4 110.02-13.93 110.59-17.45 111.49-20.5L111.49-20.5Q111.94-22.1 112.69-22.7 113.44-23.3 115.09-23.3L115.09-23.3Q117.64-23.3 117.64-21.6L117.64-21.6Q117.64-20.35 116.69-15.8L116.69-15.8Q115.49-10.3 115.49-8.35L115.49-8.35Q115.49-6.85 115.89-6.05 116.29-5.25 117.24-5.25L117.24-5.25Q118.14-5.25 119.49-6.5 120.84-7.75 123.09-10.45L123.09-10.45Q123.69-11.15 124.44-11.15L124.44-11.15Q125.09-11.15 125.47-10.55 125.84-9.95 125.84-8.9L125.84-8.9Q125.84-6.9 124.89-5.8L124.89-5.8Q119.94 0.25 115.64 0.25L115.64 0.25ZM144.09-11.15Q144.74-11.15 145.12-10.55 145.49-9.95 145.49-8.9L145.49-8.9Q145.49-6.9 144.54-5.8L144.54-5.8Q142.69-3.55 139.32-1.65 135.94 0.25 132.09 0.25L132.09 0.25Q126.84 0.25 123.94-2.6 121.04-5.45 121.04-10.4L121.04-10.4Q121.04-13.85 122.49-16.82 123.94-19.8 126.52-21.55 129.09-23.3 132.34-23.3L132.34-23.3Q135.24-23.3 136.99-21.58 138.74-19.85 138.74-16.9L138.74-16.9Q138.74-13.45 136.27-10.98 133.79-8.5 127.89-7.05L127.89-7.05Q129.14-4.75 132.64-4.75L132.64-4.75Q134.89-4.75 137.77-6.33 140.64-7.9 142.74-10.45L142.74-10.45Q143.34-11.15 144.09-11.15L144.09-11.15ZM131.49-18.4Q129.64-18.4 128.37-16.25 127.09-14.1 127.09-11.05L127.09-11.05 127.09-10.95Q130.04-11.65 131.74-13.05 133.44-14.45 133.44-16.3L133.44-16.3Q133.44-17.25 132.92-17.82 132.39-18.4 131.49-18.4L131.49-18.4ZM166.79-11.05Q167.44-11.05 167.81-10.43 168.19-9.8 168.19-8.85L168.19-8.85Q168.19-7.7 167.84-7.05 167.49-6.4 166.74-5.9L166.74-5.9Q162.44-3 160.44-1.6L160.44-1.6 157.24 0.55Q155.34 10.9 152.26 16.82 149.19 22.75 144.44 22.75L144.44 22.75Q141.89 22.75 140.29 21.18 138.69 19.6 138.69 17.05L138.69 17.05Q138.69 13.5 141.49 9.43 144.29 5.35 151.99-0.6L151.99-0.6 152.29-2.55Q151.44-1.2 150.06-0.48 148.69 0.25 147.34 0.25L147.34 0.25Q144.24 0.25 142.39-2 140.54-4.25 140.54-7.9L140.54-7.9Q140.54-11.9 142.39-15.48 144.24-19.05 147.31-21.23 150.39-23.4 153.84-23.4L153.84-23.4Q154.94-23.4 155.31-22.98 155.69-22.55 155.94-21.45L155.94-21.45Q156.89-21.65 158.14-21.65L158.14-21.65Q159.39-21.65 159.91-21.28 160.44-20.9 160.44-19.8L160.44-19.8Q160.44-19.2 160.39-18.85L160.39-18.85Q160.19-17.3 159.14-11L159.14-11Q158.94-9.8 158.71-8.38 158.49-6.95 158.24-5.35L158.24-5.35Q162.09-8.35 165.64-10.65L165.64-10.65Q166.29-11.05 166.79-11.05L166.79-11.05ZM149.14-4.8Q150.29-4.8 151.34-6.2 152.39-7.6 152.84-10.2L152.84-10.2 154.44-18.75Q152.39-18.7 150.64-17.18 148.89-15.65 147.84-13.15 146.79-10.65 146.79-7.85L146.79-7.85Q146.79-6.3 147.41-5.55 148.04-4.8 149.14-4.8L149.14-4.8ZM144.99 17.9Q146.24 17.9 147.81 14.9 149.39 11.9 150.84 5.35L150.84 5.35Q146.99 8.65 145.29 11.3 143.59 13.95 143.59 15.95L143.59 15.95Q143.59 16.8 143.91 17.35 144.24 17.9 144.99 17.9L144.99 17.9ZM168.13 0.25Q166.24 0.25 165.46-1.75 164.69-3.75 164.69-8.15L164.69-8.15Q164.69-14.65 166.53-20.5L166.53-20.5Q166.99-21.95 168.01-22.63 169.03-23.3 170.88-23.3L170.88-23.3Q171.88-23.3 172.28-23.05 172.69-22.8 172.69-22.1L172.69-22.1Q172.69-21.3 171.94-18.5L171.94-18.5Q171.44-16.5 171.13-15 170.84-13.5 170.63-11.3L170.63-11.3Q172.28-15.6 174.34-18.3 176.38-21 178.36-22.15 180.34-23.3 181.99-23.3L181.99-23.3Q185.24-23.3 185.24-20.05L185.24-20.05Q185.24-19.4 184.78-16.9L184.78-16.9Q184.38-14.9 184.38-14.4L184.38-14.4Q184.38-12.65 185.63-12.65L185.63-12.65Q187.03-12.65 189.24-14.85L189.24-14.85Q189.88-15.5 190.59-15.5L190.59-15.5Q191.24-15.5 191.61-14.93 191.99-14.35 191.99-13.4L191.99-13.4Q191.99-11.55 190.99-10.5L190.99-10.5Q189.59-9.05 187.71-8.03 185.84-7 183.74-7L183.74-7Q181.09-7 179.71-8.35 178.34-9.7 178.34-12L178.34-12Q178.34-12.75 178.49-13.5L178.49-13.5Q178.59-14.5 178.59-14.85L178.59-14.85Q178.59-15.65 178.03-15.65L178.03-15.65Q177.28-15.65 176.06-13.98 174.84-12.3 173.63-9.55 172.44-6.8 171.69-3.75L171.69-3.75Q171.13-1.4 170.41-0.58 169.69 0.25 168.13 0.25L168.13 0.25ZM193.48 0.25Q190.38 0.25 188.53-2 186.68-4.25 186.68-7.9L186.68-7.9Q186.68-11.9 188.53-15.48 190.38-19.05 193.46-21.23 196.53-23.4 199.98-23.4L199.98-23.4Q201.08-23.4 201.46-22.98 201.83-22.55 202.08-21.45L202.08-21.45Q203.13-21.65 204.28-21.65L204.28-21.65Q206.73-21.65 206.73-19.9L206.73-19.9Q206.73-18.85 205.98-14.9L205.98-14.9Q204.83-9.15 204.83-6.9L204.83-6.9Q204.83-6.15 205.21-5.7 205.58-5.25 206.18-5.25L206.18-5.25Q207.13-5.25 208.48-6.48 209.83-7.7 212.13-10.45L212.13-10.45Q212.73-11.15 213.48-11.15L213.48-11.15Q214.13-11.15 214.51-10.55 214.88-9.95 214.88-8.9L214.88-8.9Q214.88-6.9 213.93-5.8L213.93-5.8Q211.88-3.25 209.58-1.5 207.28 0.25 205.13 0.25L205.13 0.25Q203.48 0.25 202.11-0.88 200.73-2 200.03-3.95L200.03-3.95Q197.43 0.25 193.48 0.25L193.48 0.25ZM195.28-4.8Q196.38-4.8 197.38-6.1 198.38-7.4 198.83-9.55L198.83-9.55 200.68-18.75Q198.58-18.7 196.81-17.18 195.03-15.65 193.98-13.15 192.93-10.65 192.93-7.85L192.93-7.85Q192.93-6.3 193.56-5.55 194.18-4.8 195.28-4.8L195.28-4.8ZM214.38 0.25Q212.48 0.25 211.71-1.75 210.93-3.75 210.93-8.15L210.93-8.15Q210.93-14.65 212.78-20.5L212.78-20.5Q213.23-21.95 214.25-22.63 215.28-23.3 217.13-23.3L217.13-23.3Q218.13-23.3 218.53-23.05 218.93-22.8 218.93-22.1L218.93-22.1Q218.93-21.3 218.18-18.5L218.18-18.5Q217.68-16.5 217.38-15.03 217.08-13.55 216.88-11.35L216.88-11.35Q218.23-15.25 220.11-17.95 221.98-20.65 223.96-21.98 225.93-23.3 227.68-23.3L227.68-23.3Q229.43-23.3 230.16-22.5 230.88-21.7 230.88-20.05L230.88-20.05Q230.88-18.45 229.93-14.25L229.93-14.25Q229.53-12.45 229.38-11.55L229.38-11.55Q231.88-17.7 234.93-20.5 237.98-23.3 240.63-23.3L240.63-23.3Q243.88-23.3 243.88-20.05L243.88-20.05Q243.88-18.1 242.78-13L242.78-13Q241.83-8.65 241.83-7.25L241.83-7.25Q241.83-5.25 243.28-5.25L243.28-5.25Q244.28-5.25 245.66-6.48 247.03-7.7 249.33-10.45L249.33-10.45Q249.93-11.15 250.68-11.15L250.68-11.15Q251.33-11.15 251.71-10.55 252.08-9.95 252.08-8.9L252.08-8.9Q252.08-6.9 251.13-5.8L251.13-5.8Q248.98-3.15 246.5-1.45 244.03 0.25 240.88 0.25L240.88 0.25Q238.33 0.25 237.03-1.23 235.73-2.7 235.73-5.5L235.73-5.5Q235.73-6.9 236.43-10.5L236.43-10.5Q237.08-13.65 237.08-14.85L237.08-14.85Q237.08-15.65 236.53-15.65L236.53-15.65Q235.88-15.65 234.68-13.98 233.48-12.3 232.28-9.55 231.08-6.8 230.33-3.75L230.33-3.75Q229.78-1.35 229.06-0.55 228.33 0.25 226.73 0.25L226.73 0.25Q225.08 0.25 224.25-1.33 223.43-2.9 223.43-5.15L223.43-5.15Q223.43-7.05 223.93-10.65L223.93-10.65Q224.33-13.85 224.33-14.85L224.33-14.85Q224.33-15.65 223.78-15.65L223.78-15.65Q223.03-15.65 221.88-13.85 220.73-12.05 219.66-9.25 218.58-6.45 217.93-3.75L217.93-3.75Q217.38-1.4 216.66-0.58 215.93 0.25 214.38 0.25L214.38 0.25Z" opacity="1" transform="matrix(1,0,0,1,0,0)" fill="#ffffff" class="undefined-text-0" data-fill-palette-color="quaternary" id="text-0"></path></svg></g></svg></g><g transform="matrix(1,0,0,1,0,148.72393473677334)"><svg viewBox="0 0 395.52 27.953720930232556" height="27.953720930232556" width="395.52"><g transform="matrix(1,0,0,1,0,0)"><svg width="395.52" viewBox="0.44999998807907104 -38.099998474121094 550.3399658203125 38.89999771118164" height="27.953720930232556" data-palette-color="#77d4fc"><path d="M36.05-1.4L36.05 0 23.25 0 23.25-1.4 24.85-1.4Q27.05-1.4 27.05-2.8L27.05-2.8Q27.05-3 26.55-4.5L26.55-4.5 23.15-13.4 10.55-13.4 7.25-4.9Q7.25-4.8 6.9-3.68 6.55-2.55 6.55-2.13 6.55-1.7 7.1-1.55 7.65-1.4 9.45-1.4L9.45-1.4 10.25-1.4 10.25 0 0.45 0 0.45-1.4 1.15-1.4Q2.8-1.4 3.55-1.98 4.3-2.55 4.85-3.9L4.85-3.9 15.85-32.6Q16.1-32.65 16.75-33.33 17.4-34 17.95-34.73 18.5-35.45 18.5-35.55 18.5-35.65 18.45-35.7L18.45-35.7 19.15-35.9 31.45-3.7Q32-2.55 32.58-1.98 33.15-1.4 34.25-1.4L34.25-1.4 36.05-1.4ZM11.35-15.5L22.25-15.5 16.85-29.8 11.35-15.5ZM48.45-1.4L48.45 0 38.45 0 38.45-1.4 39.15-1.4Q40.25-1.4 40.75-1.88 41.25-2.35 41.25-3.5L41.25-3.5 41.25-33Q41.25-33.95 40.6-34.38 39.95-34.8 38.35-34.8L38.35-34.8 38.35-36.2Q39.35-36.2 41.42-36.75 43.5-37.3 44.45-37.9L44.45-37.9 45.35-38.1 45.35-3.6Q45.35-2.8 45.42-2.45 45.5-2.1 46-1.75 46.5-1.4 47.55-1.4L47.55-1.4 48.45-1.4ZM62.35-1.4L62.35 0 52.35 0 52.35-1.4 53.05-1.4Q54.15-1.4 54.65-1.88 55.15-2.35 55.15-3.5L55.15-3.5 55.15-33Q55.15-33.95 54.5-34.38 53.85-34.8 52.25-34.8L52.25-34.8 52.25-36.2Q53.25-36.2 55.32-36.75 57.4-37.3 58.35-37.9L58.35-37.9 59.25-38.1 59.25-3.6Q59.25-2.8 59.32-2.45 59.4-2.1 59.9-1.75 60.4-1.4 61.45-1.4L61.45-1.4 62.35-1.4ZM97.54-1.4L97.54 0 84.54 0 84.54-1.4 86.54-1.4Q88.04-1.4 88.44-1.98 88.84-2.55 88.84-3.6L88.84-3.6 88.84-30.6Q88.84-31.35 88.74-31.78 88.64-32.2 88.12-32.55 87.59-32.9 86.54-32.9L86.54-32.9 83.54-32.9Q80.89-32.9 79.47-31.28 78.04-29.65 77.94-27.8L77.94-27.8 76.54-28.1 77.04-35 105.14-35 105.64-28.1 104.24-27.8Q104.14-29.6 102.69-31.25 101.24-32.9 98.64-32.9L98.64-32.9 95.64-32.9Q94.54-32.9 93.99-32.52 93.44-32.15 93.34-31.75 93.24-31.35 93.24-30.6L93.24-30.6 93.24-3.6Q93.24-2.9 93.34-2.5 93.44-2.1 93.99-1.75 94.54-1.4 95.64-1.4L95.64-1.4 97.54-1.4ZM133.14-1.4L133.14 0 124.44 0 124.44-1.4 124.74-1.4Q125.24-1.4 125.59-1.93 125.94-2.45 125.94-3.3L125.94-3.3 125.94-16Q125.94-20.6 121.94-20.6L121.94-20.6Q119.09-20.6 116.91-17.6 114.74-14.6 114.74-13.1L114.74-13.1 114.74-3.6Q114.74-2.85 114.84-2.45L114.84-2.45Q115.09-1.4 116.94-1.4L116.94-1.4 117.94-1.4 117.94 0 107.84 0 107.84-1.4 108.54-1.4Q109.89-1.4 110.31-1.88 110.74-2.35 110.74-3.3L110.74-3.3 110.74-33Q110.74-33.95 110.09-34.38 109.44-34.8 107.84-34.8L107.84-34.8 107.84-36.2Q108.89-36.2 110.94-36.75 112.99-37.3 113.84-37.9L113.84-37.9 114.74-38.1 114.74-17.4Q117.34-24 124.14-24L124.14-24Q125.94-24 127.21-23.2 128.49-22.4 129.04-21.15L129.04-21.15Q130.04-19.05 130.04-16.9L130.04-16.9 130.04-3.4Q130.04-2.7 130.14-2.35L130.14-2.35Q130.34-1.4 132.14-1.4L132.14-1.4 133.14-1.4ZM156.04-6.1L156.04-6.1 156.94-5.2Q153.74 0.7 145.44 0.7L145.44 0.7Q141.59 0.7 138.86-2.7 136.14-6.1 136.14-10.3L136.14-10.3Q136.14-15.95 139.81-19.98 143.49-24 148.74-24L148.74-24Q151.24-24 153.14-22.55L153.14-22.55Q156.54-19.9 156.54-15.7L156.54-15.7Q156.54-15.1 156.31-14.25 156.09-13.4 155.94-13.4L155.94-13.4 139.84-12.9Q139.84-9 142.29-5.7 144.74-2.4 148.24-2.4L148.24-2.4Q150.74-2.4 152.86-3.43 154.99-4.45 156.04-6.1ZM140.34-14.9L140.34-14.9 152.04-15.4Q152.14-15.4 152.14-16.3L152.14-16.3Q152.14-18.9 150.61-20 149.09-21.1 146.41-21.1 143.74-21.1 142.04-19.45 140.34-17.8 140.34-14.9ZM183.43-15.7L183.03-17.7 185.43-17.6Q189.18-17.6 192.33-18.8L192.33-18.8Q194.18-19.5 195.31-21 196.43-22.5 196.43-24.7L196.43-24.7Q196.43-32.6 186.93-32.6L186.93-32.6 181.73-32.4 181.73-3.6Q181.73-2.9 181.83-2.5 181.93-2.1 182.48-1.75 183.03-1.4 184.13-1.4L184.13-1.4 186.03-1.4 186.03 0 173.33 0 173.33-1.4 174.93-1.4Q176.03-1.4 176.58-1.75 177.13-2.1 177.23-2.5 177.33-2.9 177.33-3.6L177.33-3.6 177.33-31.3Q177.33-32.45 176.86-32.98 176.38-33.5 174.93-33.5L174.93-33.5 173.33-33.5 173.33-35 181.03-35 190.53-35.5Q195.03-35.5 197.78-33.55 200.53-31.6 200.53-28.08 200.53-24.55 198.91-21.93 197.28-19.3 194.88-18L194.88-18Q190.33-15.6 186.73-15.6L186.73-15.6Q184.63-15.6 183.43-15.7L183.43-15.7ZM210.23 0.7L210.23 0.7Q205.83 0.7 202.88-2.6 199.93-5.9 199.93-10.3L199.93-10.3Q199.93-15.9 204.15-19.95 208.38-24 213.08-24 217.78-24 220.65-20.68 223.53-17.35 223.53-13L223.53-13Q223.53-7.55 219.5-3.43 215.48 0.7 210.23 0.7ZM203.43-13Q203.43-8.35 206.25-5.28 209.08-2.2 212.6-2.2 216.13-2.2 218.13-4.85 220.13-7.5 220.13-10.3L220.13-10.3Q220.13-14.55 217.5-17.73 214.88-20.9 211.13-20.9 207.38-20.9 205.4-18.38 203.43-15.85 203.43-13L203.43-13ZM227.13-1.4L227.13-1.4 227.63-6.8 229.03-6.7Q229.03-5 231.23-3.45 233.43-1.9 235.98-1.9L235.98-1.9Q241.23-1.9 241.23-5.1L241.23-5.1Q241.23-6.7 239.88-7.95 238.53-9.2 236.63-10.03 234.73-10.85 232.83-11.73 230.93-12.6 229.58-14.03 228.23-15.45 228.23-17.3L228.23-17.3Q228.23-23.8 237.83-23.8L237.83-23.8Q239.98-23.8 242.53-22.6L242.53-22.6 242.23-17.6 241.03-17.6Q241.03-19 239.4-20.3 237.78-21.6 235.88-21.6 233.98-21.6 232.65-20.85 231.33-20.1 231.33-18.63 231.33-17.15 232.68-16.2 234.03-15.25 235.93-14.65 237.83-14.05 239.73-13.3 241.63-12.55 242.98-10.85 244.33-9.15 244.33-6.6 244.33-4.05 242.68-2.35L242.68-2.35Q239.73 0.7 234.13 0.7L234.13 0.7Q229.78 0.7 227.13-1.4ZM262.72-3.1L262.72-3.1 263.12-1.9Q259.37 0.7 254.92 0.7L254.92 0.7Q253.32 0.7 252.17-0.45 251.02-1.6 251.02-3.5L251.02-3.5 251.02-21.2 248.12-21.2 248.12-23.3 249.22-23.3Q250.87-23.3 252.3-25.3 253.72-27.3 253.72-29L253.72-29 255.02-29 255.02-23.3 261.82-23.3 261.82-21.2 256.92-21.2Q255.02-21.2 255.02-19.4L255.02-19.4 255.02-5.1Q255.02-1.8 257.42-1.8L257.42-1.8Q260.12-1.8 262.72-3.1ZM284.62-6.1L284.62-6.1 285.52-5.2Q282.32 0.7 274.02 0.7L274.02 0.7Q270.17 0.7 267.45-2.7 264.72-6.1 264.72-10.3L264.72-10.3Q264.72-15.95 268.4-19.98 272.07-24 277.32-24L277.32-24Q279.82-24 281.72-22.55L281.72-22.55Q285.12-19.9 285.12-15.7L285.12-15.7Q285.12-15.1 284.9-14.25 284.67-13.4 284.52-13.4L284.52-13.4 268.42-12.9Q268.42-9 270.87-5.7 273.32-2.4 276.82-2.4L276.82-2.4Q279.32-2.4 281.45-3.43 283.57-4.45 284.62-6.1ZM268.92-14.9L268.92-14.9 280.62-15.4Q280.72-15.4 280.72-16.3L280.72-16.3Q280.72-18.9 279.2-20 277.67-21.1 275-21.1 272.32-21.1 270.62-19.45 268.92-17.8 268.92-14.9ZM300.17-1.4L300.17 0 289.37 0 289.37-1.4 290.17-1.4Q291.52-1.4 291.89-1.85 292.27-2.3 292.27-3.3L292.27-3.3 292.27-18.3Q292.27-19.25 291.64-19.68 291.02-20.1 289.37-20.1L289.37-20.1 289.37-21.5Q290.37-21.5 292.39-22.23 294.42-22.95 295.47-23.6L295.47-23.6 296.37-23.8 296.37-17.6Q298.17-21.55 300.47-22.83 302.77-24.1 307.27-24.1L307.27-24.1 306.97-18.3 305.47-18.3Q305.47-19 304.94-19.65 304.42-20.3 303.27-20.3L303.27-20.3Q300.77-20.3 298.57-17.6 296.37-14.9 296.37-12.4L296.37-12.4 296.37-3.6Q296.37-2.8 296.44-2.45 296.52-2.1 297.02-1.75 297.52-1.4 298.57-1.4L298.57-1.4 300.17-1.4ZM309.62-1.4L309.62-1.4 310.12-6.8 311.52-6.7Q311.52-5 313.72-3.45 315.92-1.9 318.47-1.9L318.47-1.9Q323.72-1.9 323.72-5.1L323.72-5.1Q323.72-6.7 322.37-7.95 321.02-9.2 319.12-10.03 317.22-10.85 315.32-11.73 313.42-12.6 312.07-14.03 310.72-15.45 310.72-17.3L310.72-17.3Q310.72-23.8 320.32-23.8L320.32-23.8Q322.47-23.8 325.02-22.6L325.02-22.6 324.72-17.6 323.52-17.6Q323.52-19 321.89-20.3 320.27-21.6 318.37-21.6 316.47-21.6 315.14-20.85 313.82-20.1 313.82-18.63 313.82-17.15 315.17-16.2 316.52-15.25 318.42-14.65 320.32-14.05 322.22-13.3 324.12-12.55 325.47-10.85 326.82-9.15 326.82-6.6 326.82-4.05 325.17-2.35L325.17-2.35Q322.22 0.7 316.62 0.7L316.62 0.7Q312.27 0.7 309.62-1.4ZM363.81-1.4L363.81 0 351.11 0 351.11-1.4 352.71-1.4Q354.21-1.4 354.71-2 355.21-2.6 355.21-3.6L355.21-3.6 355.21-14.5 347.81-29.3Q345.76-33.6 342.51-33.6L342.51-33.6 341.41-33.6 341.41-35 352.71-35 352.71-33.6 352.11-33.6Q351.31-33.6 351.31-33.1 351.31-32.6 351.91-31.5L351.91-31.5 358.21-18.1 364.61-31.5Q365.21-32.7 365.21-33L365.21-33Q365.21-33.6 363.71-33.6L363.71-33.6 362.41-33.6 362.41-35 372.51-35 372.51-33.6 371.71-33.6Q367.96-33.6 366.31-30.1L366.31-30.1 359.51-16.5 359.51-3.6Q359.51-2.6 360.01-2 360.51-1.4 362.01-1.4L362.01-1.4 363.81-1.4ZM381.71 0.7L381.71 0.7Q377.31 0.7 374.36-2.6 371.41-5.9 371.41-10.3L371.41-10.3Q371.41-15.9 375.63-19.95 379.86-24 384.56-24 389.26-24 392.13-20.68 395.01-17.35 395.01-13L395.01-13Q395.01-7.55 390.98-3.43 386.96 0.7 381.71 0.7ZM374.91-13Q374.91-8.35 377.73-5.28 380.56-2.2 384.08-2.2 387.61-2.2 389.61-4.85 391.61-7.5 391.61-10.3L391.61-10.3Q391.61-14.55 388.98-17.73 386.36-20.9 382.61-20.9 378.86-20.9 376.88-18.38 374.91-15.85 374.91-13L374.91-13ZM423.21-1.4L423.21 0 416.01 0 416.01-5.9Q414.86-2.75 412.46-1.03 410.06 0.7 406.61 0.7L406.61 0.7Q404.81 0.7 403.56-0.1 402.31-0.9 401.76-2.15L401.76-2.15Q400.81-4.3 400.81-6.4L400.81-6.4 400.81-18.3Q400.81-20.6 397.91-20.6L397.91-20.6 397.91-22Q398.91-22 400.93-22.55 402.96-23.1 403.91-23.7L403.91-23.7 404.81-23.8 404.81-7.3Q404.81-5.05 405.88-3.88 406.96-2.7 408.91-2.7L408.91-2.7Q411.71-2.7 413.86-5.7 416.01-8.7 416.01-10.2L416.01-10.2 416.01-18.3Q416.01-20.6 413.11-20.6L413.11-20.6 413.11-22Q414.21-22 416.23-22.55 418.26-23.1 419.21-23.7L419.21-23.7 420.11-23.8 420.11-3.4Q420.11-2.7 420.21-2.35L420.21-2.35Q420.46-1.4 422.31-1.4L422.31-1.4 423.21-1.4ZM468.5 0.8L468.5 0.8 446.4-28.8 446.4-3.7Q446.4-1.5 449.5-1.5L449.5-1.5 451.4-1.5 451.4 0 439.4 0 439.4-1.5 441-1.5Q444.1-1.5 444.1-3.7L444.1-3.7 444.1-31.3Q444.1-33.5 441-33.5L441-33.5 439.4-33.5 439.4-35 447.3-35 467.9-7.3 467.9-31.3Q467.9-33.5 464.9-33.5L464.9-33.5 463.2-33.5 463.2-35 475.2-35 475.2-33.5 473.3-33.5Q470.2-33.5 470.2-31.3L470.2-31.3 470.2-0.2Q469.65-0.2 469.03 0.28 468.4 0.75 468.5 0.8ZM498.6-6.1L498.6-6.1 499.5-5.2Q496.3 0.7 488 0.7L488 0.7Q484.15 0.7 481.42-2.7 478.7-6.1 478.7-10.3L478.7-10.3Q478.7-15.95 482.37-19.98 486.05-24 491.3-24L491.3-24Q493.8-24 495.7-22.55L495.7-22.55Q499.1-19.9 499.1-15.7L499.1-15.7Q499.1-15.1 498.87-14.25 498.65-13.4 498.5-13.4L498.5-13.4 482.4-12.9Q482.4-9 484.85-5.7 487.3-2.4 490.8-2.4L490.8-2.4Q493.3-2.4 495.42-3.43 497.55-4.45 498.6-6.1ZM482.9-14.9L482.9-14.9 494.6-15.4Q494.7-15.4 494.7-16.3L494.7-16.3Q494.7-18.9 493.17-20 491.65-21.1 488.97-21.1 486.3-21.1 484.6-19.45 482.9-17.8 482.9-14.9ZM522.7-6.1L522.7-6.1 523.6-5.2Q520.4 0.7 512.1 0.7L512.1 0.7Q508.25 0.7 505.52-2.7 502.8-6.1 502.8-10.3L502.8-10.3Q502.8-15.95 506.47-19.98 510.15-24 515.4-24L515.4-24Q517.9-24 519.8-22.55L519.8-22.55Q523.2-19.9 523.2-15.7L523.2-15.7Q523.2-15.1 522.97-14.25 522.75-13.4 522.6-13.4L522.6-13.4 506.5-12.9Q506.5-9 508.95-5.7 511.4-2.4 514.9-2.4L514.9-2.4Q517.4-2.4 519.52-3.43 521.65-4.45 522.7-6.1ZM507-14.9L507-14.9 518.7-15.4Q518.8-15.4 518.8-16.3L518.8-16.3Q518.8-18.9 517.27-20 515.75-21.1 513.07-21.1 510.4-21.1 508.7-19.45 507-17.8 507-14.9ZM550.79-1.6L550.79 0 543.59 0 543.59-5.8Q542.54-2.95 540.19-1.13 537.84 0.7 534.37 0.7 530.89 0.7 528.89-1.55 526.89-3.8 526.89-7.6L526.89-7.6Q526.89-14.65 530.57-19.33 534.24-24 539.59-24L539.59-24Q540.79-24 543.59-23L543.59-23 543.59-33Q543.59-33.95 542.94-34.38 542.29-34.8 540.69-34.8L540.69-34.8 540.69-36.2Q541.74-36.2 543.79-36.75 545.84-37.3 546.69-37.9L546.69-37.9 547.59-38.1 547.59-3.4Q547.59-2.45 547.97-2.02 548.34-1.6 549.79-1.6L549.79-1.6 550.79-1.6ZM543.59-9.9L543.59-9.9 543.59-18.8Q543.39-19.1 542.99-19.6 542.59-20.1 541.32-20.9 540.04-21.7 538.69-21.7L538.69-21.7Q535.04-21.7 532.62-18.25 530.19-14.8 530.19-9.5L530.19-9.5Q530.19-6.55 531.97-4.63 533.74-2.7 536.52-2.7 539.29-2.7 541.44-5.73 543.59-8.75 543.59-9.9Z" opacity="1" transform="matrix(1,0,0,1,0,0)" fill="#77d4fc" class="undefined-text-1" data-fill-palette-color="secondary" id="text-1"></path></svg></g></svg></g></svg></g></svg></g></svg></g><defs></defs></svg><rect width="395.52" height="176.6776556670059" fill="none" stroke="none" visibility="hidden"></rect></g></svg></g></svg>